<?xml version="1.0" encoding="UTF-8" standalone="no"?>
<!DOCTYPE svg PUBLIC "-//W3C//DTD SVG 1.1//EN"
 "http://www.w3.org/Graphics/SVG/1.1/DTD/svg11.dtd">
<!-- Generated by graphviz version 15.1.0 (20260618.0150)
 -->
<!-- Title: G Pages: 1 -->
<svg width="916pt" height="1015pt"
 viewBox="0.00 0.00 916.00 1015.00" xmlns="http://www.w3.org/2000/svg" xmlns:xlink="http://www.w3.org/1999/xlink">
<g id="graph0" class="graph" transform="scale(1 1) rotate(0) translate(20.16 995.19)">
<title>G</title>
<polygon fill="white" stroke="none" points="-20.16,20.16 -20.16,-995.19 895.71,-995.19 895.71,20.16 -20.16,20.16"/>
<!-- user -->
<g id="node1" class="node">
<title>user</title>
<path fill="#f3f6fa" stroke="#aebdce" stroke-width="1.2" d="M595.92,-975.03C595.92,-975.03 494.38,-975.03 494.38,-975.03 488.38,-975.03 482.38,-969.03 482.38,-963.03 482.38,-963.03 482.38,-930.87 482.38,-930.87 482.38,-924.87 488.38,-918.87 494.38,-918.87 494.38,-918.87 595.92,-918.87 595.92,-918.87 601.92,-918.87 607.92,-924.87 607.92,-930.87 607.92,-930.87 607.92,-963.03 607.92,-963.03 607.92,-969.03 601.92,-975.03 595.92,-975.03"/>
<text xml:space="preserve" text-anchor="middle" x="545.15" y="-950.7" font-family="Arial" font-size="15.00" fill="#17304d">User</text>
<text xml:space="preserve" text-anchor="middle" x="545.15" y="-932.7" font-family="Arial" font-size="15.00" fill="#17304d">id · role grants</text>
</g>
<!-- assignment -->
<g id="node3" class="node">
<title>assignment</title>
<path fill="#f3f6fa" stroke="#aebdce" stroke-width="1.2" d="M451.92,-847.62C451.92,-847.62 284.38,-847.62 284.38,-847.62 278.38,-847.62 272.38,-841.62 272.38,-835.62 272.38,-835.62 272.38,-803.46 272.38,-803.46 272.38,-797.46 278.38,-791.46 284.38,-791.46 284.38,-791.46 451.92,-791.46 451.92,-791.46 457.92,-791.46 463.92,-797.46 463.92,-803.46 463.92,-803.46 463.92,-835.62 463.92,-835.62 463.92,-841.62 457.92,-847.62 451.92,-847.62"/>
<text xml:space="preserve" text-anchor="middle" x="368.15" y="-823.29" font-family="Arial" font-size="15.00" fill="#17304d">Assignment</text>
<text xml:space="preserve" text-anchor="middle" x="368.15" y="-805.29" font-family="Arial" font-size="15.00" fill="#17304d">operator · service profile</text>
</g>
<!-- user&#45;&gt;assignment -->
<g id="edge1" class="edge">
<title>user&#45;&gt;assignment</title>
<path fill="none" stroke="#6b829b" stroke-width="1.4" d="M506.31,-918.43C479.54,-899.46 443.81,-874.15 415.39,-854.01"/>
<polygon fill="#6b829b" stroke="#6b829b" stroke-width="1.4" points="417.08,-851.78 408.94,-849.44 413.85,-856.35 417.08,-851.78"/>
<text xml:space="preserve" text-anchor="middle" x="489.38" y="-883.47" font-family="Arial" font-size="12.00" fill="#405974">1 → N</text>
</g>
<!-- lesson -->
<g id="node2" class="node">
<title>lesson</title>
<path fill="#f3f6fa" stroke="#aebdce" stroke-width="1.2" d="M441.8,-975.03C441.8,-975.03 294.5,-975.03 294.5,-975.03 288.5,-975.03 282.5,-969.03 282.5,-963.03 282.5,-963.03 282.5,-930.87 282.5,-930.87 282.5,-924.87 288.5,-918.87 294.5,-918.87 294.5,-918.87 441.8,-918.87 441.8,-918.87 447.8,-918.87 453.8,-924.87 453.8,-930.87 453.8,-930.87 453.8,-963.03 453.8,-963.03 453.8,-969.03 447.8,-975.03 441.8,-975.03"/>
<text xml:space="preserve" text-anchor="middle" x="368.15" y="-950.7" font-family="Arial" font-size="15.00" fill="#17304d">Lesson</text>
<text xml:space="preserve" text-anchor="middle" x="368.15" y="-932.7" font-family="Arial" font-size="15.00" fill="#17304d">owner · state · epoch</text>
</g>
<!-- lesson&#45;&gt;assignment -->
<g id="edge2" class="edge">
<title>lesson&#45;&gt;assignment</title>
<path fill="none" stroke="#6b829b" stroke-width="1.4" d="M368.15,-918.43C368.15,-900.7 368.15,-877.43 368.15,-858.03"/>
<polygon fill="#6b829b" stroke="#6b829b" stroke-width="1.4" points="370.95,-858.12 368.15,-850.12 365.35,-858.12 370.95,-858.12"/>
<text xml:space="preserve" text-anchor="middle" x="385.02" y="-883.47" font-family="Arial" font-size="12.00" fill="#405974">1 → N</text>
</g>
<!-- run -->
<g id="node6" class="node">
<title>run</title>
<path fill="#173e69" stroke="#173e69" stroke-width="1.2" d="M463.55,-720.21C463.55,-720.21 272.75,-720.21 272.75,-720.21 266.75,-720.21 260.75,-714.21 260.75,-708.21 260.75,-708.21 260.75,-658.05 260.75,-658.05 260.75,-652.05 266.75,-646.05 272.75,-646.05 272.75,-646.05 463.55,-646.05 463.55,-646.05 469.55,-646.05 475.55,-652.05 475.55,-658.05 475.55,-658.05 475.55,-708.21 475.55,-708.21 475.55,-714.21 469.55,-720.21 463.55,-720.21"/>
<text xml:space="preserve" text-anchor="middle" x="368.15" y="-695.88" font-family="Arial" font-size="15.00" fill="white">TrainingRun</text>
<text xml:space="preserve" text-anchor="middle" x="368.15" y="-677.88" font-family="Arial" font-size="15.00" fill="white">version · epoch · event_seq</text>
<text xml:space="preserve" text-anchor="middle" x="368.15" y="-659.88" font-family="Arial" font-size="15.00" fill="white">state · snapshot_id</text>
</g>
<!-- assignment&#45;&gt;run -->
<g id="edge3" class="edge">
<title>assignment&#45;&gt;run</title>
<path fill="none" stroke="#6b829b" stroke-width="1.4" d="M368.15,-791.02C368.15,-773.67 368.15,-750.83 368.15,-730.72"/>
<polygon fill="#6b829b" stroke="#6b829b" stroke-width="1.4" points="370.95,-730.92 368.15,-722.92 365.35,-730.92 370.95,-730.92"/>
<text xml:space="preserve" text-anchor="middle" x="409.02" y="-747.06" font-family="Arial" font-size="12.00" fill="#405974">1 → N attempts</text>
</g>
<!-- scenario -->
<g id="node4" class="node">
<title>scenario</title>
<path fill="#f3f6fa" stroke="#aebdce" stroke-width="1.2" d="M241.67,-975.03C241.67,-975.03 12.62,-975.03 12.62,-975.03 6.62,-975.03 0.62,-969.03 0.62,-963.03 0.62,-963.03 0.62,-930.87 0.62,-930.87 0.62,-924.87 6.62,-918.87 12.62,-918.87 12.62,-918.87 241.67,-918.87 241.67,-918.87 247.67,-918.87 253.67,-924.87 253.67,-930.87 253.67,-930.87 253.67,-963.03 253.67,-963.03 253.67,-969.03 247.67,-975.03 241.67,-975.03"/>
<text xml:space="preserve" text-anchor="middle" x="127.15" y="-950.7" font-family="Arial" font-size="15.00" fill="#17304d">Published versions</text>
<text xml:space="preserve" text-anchor="middle" x="127.15" y="-932.7" font-family="Arial" font-size="15.00" fill="#17304d">scenario · rubric · EKП · workflow</text>
</g>
<!-- snapshot -->
<g id="node7" class="node">
<title>snapshot</title>
<path fill="#e8f4ef" stroke="#79aa93" stroke-width="1.2" d="M227.67,-847.62C227.67,-847.62 34.62,-847.62 34.62,-847.62 28.62,-847.62 22.62,-841.62 22.62,-835.62 22.62,-835.62 22.62,-803.46 22.62,-803.46 22.62,-797.46 28.62,-791.46 34.62,-791.46 34.62,-791.46 227.67,-791.46 227.67,-791.46 233.67,-791.46 239.67,-797.46 239.67,-803.46 239.67,-803.46 239.67,-835.62 239.67,-835.62 239.67,-841.62 233.67,-847.62 227.67,-847.62"/>
<text xml:space="preserve" text-anchor="middle" x="131.15" y="-823.29" font-family="Arial" font-size="15.00" fill="#204e3a">RunSnapshot</text>
<text xml:space="preserve" text-anchor="middle" x="131.15" y="-805.29" font-family="Arial" font-size="15.00" fill="#204e3a">immutable manifest + digest</text>
</g>
<!-- scenario&#45;&gt;snapshot -->
<g id="edge4" class="edge">
<title>scenario&#45;&gt;snapshot</title>
<path fill="none" stroke="#6b829b" stroke-width="1.4" d="M128.03,-918.43C128.59,-900.7 129.34,-877.43 129.95,-858.03"/>
<polygon fill="#6b829b" stroke="#6b829b" stroke-width="1.4" points="132.75,-858.2 130.21,-850.12 127.15,-858.02 132.75,-858.2"/>
<text xml:space="preserve" text-anchor="middle" x="145.65" y="-883.47" font-family="Arial" font-size="12.00" fill="#405974">frozen</text>
</g>
<!-- pool -->
<g id="node5" class="node">
<title>pool</title>
<path fill="#f3f6fa" stroke="#aebdce" stroke-width="1.2" d="M719.17,-856.62C719.17,-856.62 505.12,-856.62 505.12,-856.62 499.12,-856.62 493.12,-850.62 493.12,-844.62 493.12,-844.62 493.12,-794.46 493.12,-794.46 493.12,-788.46 499.12,-782.46 505.12,-782.46 505.12,-782.46 719.17,-782.46 719.17,-782.46 725.17,-782.46 731.17,-788.46 731.17,-794.46 731.17,-794.46 731.17,-844.62 731.17,-844.62 731.17,-850.62 725.17,-856.62 719.17,-856.62"/>
<text xml:space="preserve" text-anchor="middle" x="612.15" y="-832.29" font-family="Arial" font-size="15.00" fill="#17304d">Source pool</text>
<text xml:space="preserve" text-anchor="middle" x="612.15" y="-814.29" font-family="Arial" font-size="15.00" fill="#17304d">approved CardTemplateVersion</text>
<text xml:space="preserve" text-anchor="middle" x="612.15" y="-796.29" font-family="Arial" font-size="15.00" fill="#17304d">source + provenance + seed</text>
</g>
<!-- item -->
<g id="node8" class="node">
<title>item</title>
<path fill="#173e69" stroke="#173e69" stroke-width="1.2" d="M670.92,-583.8C670.92,-583.8 515.38,-583.8 515.38,-583.8 509.38,-583.8 503.38,-577.8 503.38,-571.8 503.38,-571.8 503.38,-539.64 503.38,-539.64 503.38,-533.64 509.38,-527.64 515.38,-527.64 515.38,-527.64 670.92,-527.64 670.92,-527.64 676.92,-527.64 682.92,-533.64 682.92,-539.64 682.92,-539.64 682.92,-571.8 682.92,-571.8 682.92,-577.8 676.92,-583.8 670.92,-583.8"/>
<text xml:space="preserve" text-anchor="middle" x="593.15" y="-559.47" font-family="Arial" font-size="15.00" fill="white">RunItem</text>
<text xml:space="preserve" text-anchor="middle" x="593.15" y="-541.47" font-family="Arial" font-size="15.00" fill="white">ordinal · source · state</text>
</g>
<!-- pool&#45;&gt;item -->
<g id="edge6" class="edge">
<title>pool&#45;&gt;item</title>
<path fill="none" stroke="#6b829b" stroke-width="1.4" d="M609.51,-782.14C605.91,-732.55 599.5,-644.23 595.86,-594.13"/>
<polygon fill="#6b829b" stroke="#6b829b" stroke-width="1.4" points="598.66,-593.93 595.29,-586.16 593.07,-594.34 598.66,-593.93"/>
<text xml:space="preserve" text-anchor="middle" x="648.35" y="-678.86" font-family="Arial" font-size="12.00" fill="#405974">selected version</text>
</g>
<!-- run&#45;&gt;item -->
<g id="edge7" class="edge">
<title>run&#45;&gt;item</title>
<path fill="none" stroke="#6b829b" stroke-width="1.4" d="M433.83,-645.52C465.85,-627.68 504.01,-606.4 534.96,-589.15"/>
<polygon fill="#6b829b" stroke="#6b829b" stroke-width="1.4" points="536.02,-591.77 541.64,-585.43 533.29,-586.88 536.02,-591.77"/>
<text xml:space="preserve" text-anchor="middle" x="517.68" y="-610.65" font-family="Arial" font-size="12.00" fill="#405974">1 → N</text>
</g>
<!-- events -->
<g id="node12" class="node">
<title>events</title>
<path fill="#e8f4ef" stroke="#79aa93" stroke-width="1.2" d="M456.8,-465.39C456.8,-465.39 279.5,-465.39 279.5,-465.39 273.5,-465.39 267.5,-459.39 267.5,-453.39 267.5,-453.39 267.5,-403.23 267.5,-403.23 267.5,-397.23 273.5,-391.23 279.5,-391.23 279.5,-391.23 456.8,-391.23 456.8,-391.23 462.8,-391.23 468.8,-397.23 468.8,-403.23 468.8,-403.23 468.8,-453.39 468.8,-453.39 468.8,-459.39 462.8,-465.39 456.8,-465.39"/>
<text xml:space="preserve" text-anchor="middle" x="368.15" y="-441.06" font-family="Arial" font-size="15.00" fill="#204e3a">Actions / events / receipts</text>
<text xml:space="preserve" text-anchor="middle" x="368.15" y="-423.06" font-family="Arial" font-size="15.00" fill="#204e3a">command_id · accepted</text>
<text xml:space="preserve" text-anchor="middle" x="368.15" y="-405.06" font-family="Arial" font-size="15.00" fill="#204e3a">run_id + sequence</text>
</g>
<!-- run&#45;&gt;events -->
<g id="edge11" class="edge">
<title>run&#45;&gt;events</title>
<path fill="none" stroke="#6b829b" stroke-width="1.4" d="M368.15,-645.64C368.15,-600.83 368.15,-524.76 368.15,-475.81"/>
<polygon fill="#6b829b" stroke="#6b829b" stroke-width="1.4" points="370.95,-475.91 368.15,-467.91 365.35,-475.91 370.95,-475.91"/>
<text xml:space="preserve" text-anchor="middle" x="385.02" y="-551.44" font-family="Arial" font-size="12.00" fill="#405974">1 → N</text>
</g>
<!-- snapshot&#45;&gt;run -->
<g id="edge5" class="edge">
<title>snapshot&#45;&gt;run</title>
<path fill="none" stroke="#6b829b" stroke-width="1.4" d="M179.68,-791.02C212.92,-772.17 257.6,-746.83 295.12,-725.55"/>
<polygon fill="#6b829b" stroke="#6b829b" stroke-width="1.4" points="296.08,-728.22 301.65,-721.84 293.31,-723.35 296.08,-728.22"/>
<text xml:space="preserve" text-anchor="middle" x="272.51" y="-747.06" font-family="Arial" font-size="12.00" fill="#405974">1 → 1</text>
</g>
<!-- conversation -->
<g id="node9" class="node">
<title>conversation</title>
<path fill="#f3f6fa" stroke="#aebdce" stroke-width="1.2" d="M863.55,-465.39C863.55,-465.39 684.75,-465.39 684.75,-465.39 678.75,-465.39 672.75,-459.39 672.75,-453.39 672.75,-453.39 672.75,-403.23 672.75,-403.23 672.75,-397.23 678.75,-391.23 684.75,-391.23 684.75,-391.23 863.55,-391.23 863.55,-391.23 869.55,-391.23 875.55,-397.23 875.55,-403.23 875.55,-403.23 875.55,-453.39 875.55,-453.39 875.55,-459.39 869.55,-465.39 863.55,-465.39"/>
<text xml:space="preserve" text-anchor="middle" x="774.15" y="-441.06" font-family="Arial" font-size="15.00" fill="#17304d">Conversation + messages</text>
<text xml:space="preserve" text-anchor="middle" x="774.15" y="-423.06" font-family="Arial" font-size="15.00" fill="#17304d">pending_turn · disclosure</text>
<text xml:space="preserve" text-anchor="middle" x="774.15" y="-405.06" font-family="Arial" font-size="15.00" fill="#17304d">текст / audio refs</text>
</g>
<!-- item&#45;&gt;conversation -->
<g id="edge8" class="edge">
<title>item&#45;&gt;conversation</title>
<path fill="none" stroke="#6b829b" stroke-width="1.4" d="M632.87,-527.2C656.45,-510.86 686.82,-489.82 713.36,-471.43"/>
<polygon fill="#6b829b" stroke="#6b829b" stroke-width="1.4" points="714.74,-473.88 719.72,-467.02 711.55,-469.28 714.74,-473.88"/>
<text xml:space="preserve" text-anchor="middle" x="693.4" y="-492.24" font-family="Arial" font-size="12.00" fill="#405974">0..1</text>
</g>
<!-- card -->
<g id="node10" class="node">
<title>card</title>
<path fill="#f3f6fa" stroke="#aebdce" stroke-width="1.2" d="M632.05,-465.39C632.05,-465.39 516.25,-465.39 516.25,-465.39 510.25,-465.39 504.25,-459.39 504.25,-453.39 504.25,-453.39 504.25,-403.23 504.25,-403.23 504.25,-397.23 510.25,-391.23 516.25,-391.23 516.25,-391.23 632.05,-391.23 632.05,-391.23 638.05,-391.23 644.05,-397.23 644.05,-403.23 644.05,-403.23 644.05,-453.39 644.05,-453.39 644.05,-459.39 638.05,-465.39 632.05,-465.39"/>
<text xml:space="preserve" text-anchor="middle" x="574.15" y="-441.06" font-family="Arial" font-size="15.00" fill="#17304d">IncidentCard</text>
<text xml:space="preserve" text-anchor="middle" x="574.15" y="-423.06" font-family="Arial" font-size="15.00" fill="#17304d">поля · признаки</text>
<text xml:space="preserve" text-anchor="middle" x="574.15" y="-405.06" font-family="Arial" font-size="15.00" fill="#17304d">список служб</text>
</g>
<!-- item&#45;&gt;card -->
<g id="edge9" class="edge">
<title>item&#45;&gt;card</title>
<path fill="none" stroke="#6b829b" stroke-width="1.4" d="M588.98,-527.2C586.7,-512.13 583.81,-493.05 581.19,-475.75"/>
<polygon fill="#6b829b" stroke="#6b829b" stroke-width="1.4" points="583.96,-475.4 580,-467.91 578.43,-476.24 583.96,-475.4"/>
<text xml:space="preserve" text-anchor="middle" x="588.73" y="-492.24" font-family="Arial" font-size="12.00" fill="#405974">1</text>
</g>
<!-- reactions -->
<g id="node11" class="node">
<title>reactions</title>
<path fill="#f3f6fa" stroke="#aebdce" stroke-width="1.2" d="M651.67,-328.98C651.67,-328.98 506.62,-328.98 506.62,-328.98 500.62,-328.98 494.62,-322.98 494.62,-316.98 494.62,-316.98 494.62,-266.82 494.62,-266.82 494.62,-260.82 500.62,-254.82 506.62,-254.82 506.62,-254.82 651.67,-254.82 651.67,-254.82 657.67,-254.82 663.67,-260.82 663.67,-266.82 663.67,-266.82 663.67,-316.98 663.67,-316.98 663.67,-322.98 657.67,-328.98 651.67,-328.98"/>
<text xml:space="preserve" text-anchor="middle" x="579.15" y="-304.65" font-family="Arial" font-size="15.00" fill="#17304d">ServiceReaction 0..N</text>
<text xml:space="preserve" text-anchor="middle" x="579.15" y="-286.65" font-family="Arial" font-size="15.00" fill="#17304d">service · status</text>
<text xml:space="preserve" text-anchor="middle" x="579.15" y="-268.65" font-family="Arial" font-size="15.00" fill="#17304d">append&#45;only history</text>
</g>
<!-- card&#45;&gt;reactions -->
<g id="edge10" class="edge">
<title>card&#45;&gt;reactions</title>
<path fill="none" stroke="#6b829b" stroke-width="1.4" d="M575.5,-390.94C576.1,-374.95 576.8,-355.99 577.43,-339.02"/>
<polygon fill="#6b829b" stroke="#6b829b" stroke-width="1.4" points="580.22,-339.52 577.72,-331.42 574.62,-339.31 580.22,-339.52"/>
<text xml:space="preserve" text-anchor="middle" x="587.67" y="-355.83" font-family="Arial" font-size="12.00" fill="#405974">0..N</text>
</g>
<!-- evidence -->
<g id="node13" class="node">
<title>evidence</title>
<path fill="#e8f4ef" stroke="#79aa93" stroke-width="1.2" d="M453.8,-319.98C453.8,-319.98 282.5,-319.98 282.5,-319.98 276.5,-319.98 270.5,-313.98 270.5,-307.98 270.5,-307.98 270.5,-275.82 270.5,-275.82 270.5,-269.82 276.5,-263.82 282.5,-263.82 282.5,-263.82 453.8,-263.82 453.8,-263.82 459.8,-263.82 465.8,-269.82 465.8,-275.82 465.8,-275.82 465.8,-307.98 465.8,-307.98 465.8,-313.98 459.8,-319.98 453.8,-319.98"/>
<text xml:space="preserve" text-anchor="middle" x="368.15" y="-295.65" font-family="Arial" font-size="15.00" fill="#204e3a">EvidenceManifest</text>
<text xml:space="preserve" text-anchor="middle" x="368.15" y="-277.65" font-family="Arial" font-size="15.00" fill="#204e3a">cutoff · coverage · digest</text>
</g>
<!-- card&#45;&gt;evidence -->
<g id="edge13" class="edge">
<title>card&#45;&gt;evidence</title>
<path fill="none" stroke="#6b829b" stroke-width="1.4" d="M518.13,-390.76C487.09,-370.51 448.81,-345.53 418.69,-325.88"/>
<polygon fill="#6b829b" stroke="#6b829b" stroke-width="1.4" points="420.43,-323.67 412.2,-321.64 417.37,-328.36 420.43,-323.67"/>
<text xml:space="preserve" text-anchor="middle" x="501.7" y="-355.83" font-family="Arial" font-size="12.00" fill="#405974">snapshot</text>
</g>
<!-- events&#45;&gt;evidence -->
<g id="edge12" class="edge">
<title>events&#45;&gt;evidence</title>
<path fill="none" stroke="#6b829b" stroke-width="1.4" d="M368.15,-390.94C368.15,-372.18 368.15,-349.32 368.15,-330.4"/>
<polygon fill="#6b829b" stroke="#6b829b" stroke-width="1.4" points="370.95,-330.46 368.15,-322.46 365.35,-330.46 370.95,-330.46"/>
<text xml:space="preserve" text-anchor="middle" x="386.15" y="-355.83" font-family="Arial" font-size="12.00" fill="#405974">sealed</text>
</g>
<!-- assessment -->
<g id="node14" class="node">
<title>assessment</title>
<path fill="#173e69" stroke="#173e69" stroke-width="1.2" d="M449.67,-192.57C449.67,-192.57 286.62,-192.57 286.62,-192.57 280.62,-192.57 274.62,-186.57 274.62,-180.57 274.62,-180.57 274.62,-130.41 274.62,-130.41 274.62,-124.41 280.62,-118.41 286.62,-118.41 286.62,-118.41 449.67,-118.41 449.67,-118.41 455.67,-118.41 461.67,-124.41 461.67,-130.41 461.67,-130.41 461.67,-180.57 461.67,-180.57 461.67,-186.57 455.67,-192.57 449.67,-192.57"/>
<text xml:space="preserve" text-anchor="middle" x="368.15" y="-168.24" font-family="Arial" font-size="15.00" fill="white">Assessment + revisions</text>
<text xml:space="preserve" text-anchor="middle" x="368.15" y="-150.24" font-family="Arial" font-size="15.00" fill="white">criteria · nullable score</text>
<text xml:space="preserve" text-anchor="middle" x="368.15" y="-132.24" font-family="Arial" font-size="15.00" fill="white">automatic / expert</text>
</g>
<!-- evidence&#45;&gt;assessment -->
<g id="edge14" class="edge">
<title>evidence&#45;&gt;assessment</title>
<path fill="none" stroke="#6b829b" stroke-width="1.4" d="M368.15,-263.38C368.15,-246.03 368.15,-223.19 368.15,-203.08"/>
<polygon fill="#6b829b" stroke="#6b829b" stroke-width="1.4" points="370.95,-203.28 368.15,-195.28 365.35,-203.28 370.95,-203.28"/>
<text xml:space="preserve" text-anchor="middle" x="410.52" y="-219.42" font-family="Arial" font-size="12.00" fill="#405974">1 → N revisions</text>
</g>
<!-- result -->
<g id="node15" class="node">
<title>result</title>
<path fill="#e8f4ef" stroke="#79aa93" stroke-width="1.2" d="M453.42,-56.16C453.42,-56.16 282.88,-56.16 282.88,-56.16 276.88,-56.16 270.88,-50.16 270.88,-44.16 270.88,-44.16 270.88,-12 270.88,-12 270.88,-6 276.88,0 282.88,0 282.88,0 453.42,0 453.42,0 459.42,0 465.42,-6 465.42,-12 465.42,-12 465.42,-44.16 465.42,-44.16 465.42,-50.16 459.42,-56.16 453.42,-56.16"/>
<text xml:space="preserve" text-anchor="middle" x="368.15" y="-31.83" font-family="Arial" font-size="15.00" fill="#204e3a">RunResult + progress</text>
<text xml:space="preserve" text-anchor="middle" x="368.15" y="-13.83" font-family="Arial" font-size="15.00" fill="#204e3a">revision&#45;aware projection</text>
</g>
<!-- assessment&#45;&gt;result -->
<g id="edge15" class="edge">
<title>assessment&#45;&gt;result</title>
<path fill="none" stroke="#6b829b" stroke-width="1.4" d="M368.15,-117.88C368.15,-101.71 368.15,-82.73 368.15,-66.48"/>
<polygon fill="#6b829b" stroke="#6b829b" stroke-width="1.4" points="370.95,-66.88 368.15,-58.88 365.35,-66.88 370.95,-66.88"/>
<text xml:space="preserve" text-anchor="middle" x="394.4" y="-83.01" font-family="Arial" font-size="12.00" fill="#405974">projection</text>
</g>
<!-- tasks -->
<g id="node16" class="node">
<title>tasks</title>
<path fill="#eee9fb" stroke="#8a74b3" stroke-width="1.2" d="M192.3,-192.57C192.3,-192.57 12,-192.57 12,-192.57 6,-192.57 0,-186.57 0,-180.57 0,-180.57 0,-130.41 0,-130.41 0,-124.41 6,-118.41 12,-118.41 12,-118.41 192.3,-118.41 192.3,-118.41 198.3,-118.41 204.3,-124.41 204.3,-130.41 204.3,-130.41 204.3,-180.57 204.3,-180.57 204.3,-186.57 198.3,-192.57 192.3,-192.57"/>
<text xml:space="preserve" text-anchor="middle" x="102.15" y="-168.24" font-family="Arial" font-size="15.00" fill="#443567">ExecutionTask</text>
<text xml:space="preserve" text-anchor="middle" x="102.15" y="-150.24" font-family="Arial" font-size="15.00" fill="#443567">scope + kind + dedup_key</text>
<text xml:space="preserve" text-anchor="middle" x="102.15" y="-132.24" font-family="Arial" font-size="15.00" fill="#443567">lease token · status</text>
</g>
<!-- tasks&#45;&gt;assessment -->
<g id="edge16" class="edge">
<title>tasks&#45;&gt;assessment</title>
<path fill="none" stroke="#6b829b" stroke-width="1.4" d="M204.61,-155.49C224.27,-155.49 244.87,-155.49 264.56,-155.49"/>
<polygon fill="#6b829b" stroke="#6b829b" stroke-width="1.4" points="264.33,-158.29 272.33,-155.49 264.33,-152.69 264.33,-158.29"/>
<text xml:space="preserve" text-anchor="middle" x="239.46" y="-161.34" font-family="Arial" font-size="12.00" fill="#405974">execute</text>
</g>
</g>
</svg>
